<svg width="24" height="24" viewBox="0 0 24 24" fill="none" xmlns="http://www.w3.org/2000/svg">
<path d="M12.0004 21.5984C17.3023 21.5984 21.6004 17.3004 21.6004 11.9984C21.6004 6.6965 17.3023 2.39844 12.0004 2.39844C6.69846 2.39844 2.40039 6.6965 2.40039 11.9984C2.40039 17.3004 6.69846 21.5984 12.0004 21.5984Z" fill="#7D3DAE"/>
<path d="M12 24C18.6274 24 24 18.6274 24 12C24 5.37258 18.6274 0 12 0C5.37258 0 0 5.37258 0 12C0 18.6274 5.37258 24 12 24Z" fill="#EDEDED"/>
<path d="M15.9561 8.83594L10.4121 15.1719L8.03613 12.7959" stroke="white" stroke-width="1.5" stroke-linecap="round" stroke-linejoin="round"/>
</svg>
