<svg width="30" height="30" viewBox="0 0 30 30" fill="none" xmlns="http://www.w3.org/2000/svg">
<path d="M19.5069 10.0678C19.1736 9.76441 18.7952 9.42018 18.75 9.375C18.75 8.69479 19.6256 7.25977 20.2891 6.18258L23.3569 4.95545C23.6474 4.83949 23.8074 4.52637 23.7317 4.22361C23.6194 3.77807 23.0286 1.51916 22.3169 0.808066C21.5479 0.0390821 19.7314 0 19.375 0C19.209 0 19.0503 0.065918 18.9331 0.183105C18.2886 0.827637 16.3257 2.50002 15 2.50002C13.6779 2.50002 11.7127 0.827051 11.0669 0.183105C10.9497 0.065918 10.791 0 10.625 0C10.2686 0 8.45215 0.039082 7.68311 0.808125C6.97143 1.51916 6.38062 3.77813 6.2683 4.22367C6.1926 4.52643 6.35256 4.83949 6.64307 4.95551L9.71092 6.18264C10.3744 7.25982 11.2503 8.69309 11.2646 9.2884C11.2048 9.42023 10.8264 9.76447 10.4931 10.0678C8.47535 11.9055 3.75 16.2091 3.75 28.125C3.75 28.4705 4.02955 28.75 4.37502 28.75C6.95924 28.75 8.21414 29.0455 9.54469 29.3585C10.885 29.6741 12.2718 30 15 30C17.7282 30 19.115 29.674 20.4553 29.3585C21.7859 29.0454 23.0408 28.75 25.625 28.75C25.9704 28.75 26.25 28.4705 26.25 28.125C26.25 16.2091 21.5246 11.9055 19.5069 10.0678Z" fill="#704F38"/>
</svg>
