<svg width="24" height="24" viewBox="0 0 24 24" fill="none" xmlns="http://www.w3.org/2000/svg">
<path fill-rule="evenodd" clip-rule="evenodd" d="M11.9613 0.363281C14.1247 0.387969 16.0792 0.919677 17.8247 1.9584C19.5493 2.9764 20.984 4.41982 21.9914 6.15065C23.0238 7.90663 23.5523 9.87293 23.5769 12.0495C23.5156 15.0277 22.5763 17.5713 20.759 19.6804C18.9416 21.7895 16.6141 23.0943 14.2046 23.5945V15.2447H16.4825L16.9977 11.9635H13.5483V9.81436C13.5292 9.36883 13.6701 8.93115 13.9455 8.58046C14.2214 8.22881 14.7072 8.04399 15.4029 8.02599H17.4858V5.15169C17.4559 5.14207 17.1723 5.10405 16.635 5.03761C16.0257 4.96632 15.4129 4.92824 14.7994 4.92354C13.4109 4.92995 12.3127 5.32162 11.505 6.09857C10.6972 6.8753 10.2846 7.99907 10.2671 9.46986V11.9635H7.64209V15.2447H10.2671V23.5945C7.30858 23.0943 4.98099 21.7895 3.16365 19.6804C1.34631 17.5713 0.407025 15.0277 0.345703 12.0495C0.370237 9.87283 0.898731 7.90653 1.93118 6.15065C2.93866 4.41982 4.37332 2.9764 6.09798 1.9584C7.8434 0.919877 9.79784 0.388169 11.9613 0.363281Z" fill="#704F38"/>
</svg>
