<svg width="24" height="24" viewBox="0 0 24 24" fill="none" xmlns="http://www.w3.org/2000/svg">
<path d="M6.375 9.84375C5.21184 9.84375 4.26562 10.79 4.26562 11.9531V17.6719C4.26562 18.835 5.21184 19.7812 6.375 19.7812C7.53816 19.7812 8.48438 18.835 8.48438 17.6719V11.9531C8.48438 10.79 7.53816 9.84375 6.375 9.84375Z" fill="#704F38"/>
<path d="M2.85938 11.9535C2.85938 11.7507 2.88614 11.5548 2.91928 11.3613C2.07188 11.6352 1.45312 12.4223 1.45312 13.3598V16.266C1.45312 17.2035 2.07188 17.9906 2.91928 18.2645C2.88614 18.0711 2.85938 17.8751 2.85938 17.6723V11.9535Z" fill="#704F38"/>
<path d="M17.625 9.84375C16.4618 9.84375 15.5156 10.79 15.5156 11.9531V17.6719C15.5156 18.835 16.4618 19.7812 17.625 19.7812C17.8364 19.7812 18.0367 19.7406 18.2293 19.6824C17.9676 20.55 17.1705 21.1875 16.2188 21.1875H13.9799C13.6886 20.3708 12.9155 19.7812 12 19.7812C10.8368 19.7812 9.89062 20.7275 9.89062 21.8906C9.89062 23.0538 10.8368 24 12 24C12.9155 24 13.6886 23.4104 13.9799 22.5938H16.2188C18.1572 22.5938 19.7344 21.0165 19.7344 19.0781V17.6719V11.9531C19.7344 10.79 18.7882 9.84375 17.625 9.84375Z" fill="#704F38"/>
<path d="M21.0811 11.3613C21.1142 11.5548 21.141 11.7507 21.141 11.9535V17.6723C21.141 17.8751 21.1142 18.0711 21.0811 18.2645C21.9285 17.9906 22.5472 17.2035 22.5472 16.266V13.3598C22.5472 12.4223 21.9285 11.6352 21.0811 11.3613Z" fill="#704F38"/>
<path d="M12 0C6.18412 0 1.45312 4.731 1.45312 10.5469V10.5648C1.87205 10.2477 2.35673 10.0156 2.89158 9.91167C3.22022 5.16802 7.17441 1.40625 12 1.40625C16.8256 1.40625 20.7798 5.16802 21.1084 9.91162C21.6432 10.0155 22.1279 10.2477 22.5469 10.5648V10.5469C22.5469 4.731 17.8159 0 12 0Z" fill="#704F38"/>
</svg>
