<svg width="30" height="30" viewBox="0 0 30 30" fill="none" xmlns="http://www.w3.org/2000/svg">
<path d="M14.464 4.79227C13.6393 4.7402 12.8289 4.57499 12.0502 4.2857L10.5273 3.71934L9.99971 3.49316V3.51556C7.87239 4.37002 4.68124 5.65284 4.55921 5.71413C3.13013 6.4291 2.0586 7.72113 1.60131 9.35785L0.00252111 26.0743C-0.0132289 26.2398 0.0453783 26.4032 0.162593 26.5205C0.972058 27.3304 2.09288 27.7952 3.2377 27.7952H3.8887C4.1676 27.7952 4.40299 27.5884 4.43942 27.312L6.29096 13.2664C6.5406 14.5709 6.66639 15.8976 6.66639 17.2331V28.3927C6.66639 28.6408 6.83074 28.8591 7.06957 28.9274C9.43443 29.6034 11.9212 29.9549 14.4641 29.9999L14.464 4.79227ZM11.222 22.6837L10.1506 25.8999C10.0758 26.1244 9.86707 26.2663 9.6426 26.2663C9.58668 26.2663 9.52957 26.2574 9.4731 26.2385C9.19271 26.1453 9.041 25.8418 9.13464 25.5607L10.2061 22.3444C10.2997 22.0638 10.6015 21.911 10.8835 22.0058C11.1639 22.099 11.3156 22.4026 11.222 22.6837Z" fill="#704F38"/>
<path d="M28.3796 9.25795C27.9401 7.72055 26.868 6.42851 25.4401 5.71408C25.3175 5.6528 22.1263 4.36997 19.9996 3.51551V3.49365L19.4966 3.70933L17.948 4.28576C17.1709 4.57515 16.3607 4.74037 15.5352 4.79233V30.0001C18.0777 29.955 20.5643 29.6035 22.9302 28.9276C23.1678 28.8592 23.3327 28.641 23.3327 28.3928V17.2332C23.3327 15.8978 23.4586 14.5711 23.7081 13.2666L25.5592 27.3121C25.5962 27.5884 25.8316 27.7953 26.1105 27.7953H26.7615C27.9225 27.7953 29.0141 27.3425 29.8366 26.5206C29.9538 26.4034 30.0124 26.24 29.9971 26.0744L28.3796 9.25795ZM20.5261 26.2386C20.4696 26.2575 20.4131 26.2664 20.3566 26.2664C20.1327 26.2664 19.9234 26.1245 19.8481 25.8999L18.7767 22.6837C18.6836 22.4026 18.8353 22.099 19.1157 22.0058C19.3971 21.9116 19.6995 22.0634 19.7937 22.3445L20.8651 25.5607C20.9582 25.8419 20.8065 26.1455 20.5261 26.2386Z" fill="#704F38"/>
<path d="M10.9252 2.72407L12.424 3.28057C14.0772 3.89461 15.9229 3.89461 17.5761 3.28057L19.0995 2.71422L20.0001 2.32797V0.556356C20.0001 0.374534 19.911 0.20407 19.7614 0.0998196C19.6117 -0.00443056 19.4217 -0.028859 19.2514 0.0352125L17.6715 0.62257C15.9571 1.25943 14.043 1.25943 12.3286 0.62257L10.7493 0.0352125C10.5784 -0.0282162 10.388 -0.00335913 10.2387 0.0998196C10.089 0.20407 10 0.374534 10 0.556356V2.32743L10.9252 2.72407Z" fill="#704F38"/>
</svg>
