<svg width="16" height="18" viewBox="0 0 16 18" fill="none" xmlns="http://www.w3.org/2000/svg">
<path d="M15.1829 6.04183C14.3079 2.19183 10.9496 0.458496 7.99959 0.458496C7.99959 0.458496 7.99959 0.458496 7.99126 0.458496C5.04959 0.458496 1.68292 2.1835 0.807925 6.0335C-0.167075 10.3335 2.46626 13.9752 4.84959 16.2668C5.73292 17.1168 6.86626 17.5418 7.99959 17.5418C9.13292 17.5418 10.2663 17.1168 11.1413 16.2668C13.5246 13.9752 16.1579 10.3418 15.1829 6.04183ZM7.99959 10.2168C6.54959 10.2168 5.37459 9.04183 5.37459 7.59183C5.37459 6.14183 6.54959 4.96683 7.99959 4.96683C9.44959 4.96683 10.6246 6.14183 10.6246 7.59183C10.6246 9.04183 9.44959 10.2168 7.99959 10.2168Z" fill="#704F38"/>
</svg>
