<svg width="36" height="36" viewBox="0 0 36 36" fill="none" xmlns="http://www.w3.org/2000/svg">
<circle cx="18" cy="18" r="18" fill="#F1F1F1"/>
<path d="M11.2755 18.1223L11.2755 18.1223L11.2783 18.1174C11.4248 17.8672 11.5508 17.5302 11.6398 17.2067C11.7288 16.8836 11.7939 16.5271 11.7939 16.2323V14.4179C11.7939 11.1479 14.4518 8.49661 17.7253 8.48723C20.9862 8.4876 23.6455 11.1462 23.6455 14.4179V16.242C23.6455 16.537 23.7107 16.8939 23.8013 17.2182C23.8917 17.5417 24.0207 17.8806 24.1744 18.1332C24.1747 18.1337 24.175 18.1342 24.1753 18.1347L25.2747 19.9638C25.2749 19.9641 25.2751 19.9645 25.2753 19.9649C25.6007 20.5131 25.662 21.1578 25.4424 21.7473C25.2204 22.3333 24.7546 22.7915 24.144 22.9979C23.1137 23.3413 22.057 23.6077 20.993 23.7787L20.993 23.7786L20.9831 23.7803C20.872 23.8005 20.7862 23.8158 20.7043 23.8233L20.6862 23.8249L20.6683 23.8279C20.508 23.8546 20.3456 23.8728 20.1679 23.8925L20.1678 23.8924L20.1558 23.894C19.9551 23.9214 19.7428 23.9399 19.5162 23.9597L19.5162 23.9596L19.5114 23.9601C18.9226 24.0171 18.3237 24.0456 17.7246 24.0456C17.1154 24.0456 16.5066 24.017 15.9077 23.96L15.9077 23.9599L15.8975 23.9592C15.6472 23.9406 15.4063 23.9128 15.165 23.8757L15.1651 23.8756L15.1553 23.8743C15.0117 23.8551 14.8707 23.8363 14.7392 23.8176C14.6783 23.8068 14.6192 23.7988 14.5705 23.7921L14.5666 23.7916C14.5112 23.784 14.4683 23.7781 14.427 23.7706L14.427 23.7706L14.4221 23.7697C13.3601 23.5879 12.3213 23.3399 11.2946 22.9976L11.2911 22.9965C10.6446 22.7864 10.1678 22.3241 9.95901 21.7597L9.95823 21.7576C9.75378 21.2124 9.81989 20.5571 10.1743 19.9542L11.2755 18.1223ZM17.6953 16.9834C18.3744 16.9834 18.9244 16.4334 18.9244 15.7543V12.7304C18.9244 12.0514 18.3744 11.5014 17.6953 11.5014C17.0163 11.5014 16.4663 12.0514 16.4663 12.7304V15.7543C16.4663 16.4334 17.0163 16.9834 17.6953 16.9834Z" fill="#242424" stroke="#242424" stroke-width="0.975446"/>
<path d="M15.8482 26.108C15.8973 26.1129 15.9467 26.1174 15.9963 26.1215C16.5635 26.1713 17.1433 26.2014 17.7253 26.2014C18.2983 26.2014 18.8689 26.1712 19.427 26.1214L19.427 26.1214L19.4298 26.1211C19.4718 26.1171 19.5182 26.1133 19.5676 26.1093C19.1177 26.6376 18.4492 26.972 17.7058 26.972C17.0631 26.972 16.4304 26.7104 15.9889 26.2529L15.9804 26.2441L15.9715 26.2357C15.9288 26.1957 15.8876 26.153 15.8482 26.108Z" fill="#242424" stroke="#242424" stroke-width="0.975446"/>
<circle cx="23" cy="10" r="2.5" fill="#FC0101" stroke="#F1F1F1"/>
</svg>
