<svg width="16" height="30" viewBox="0 0 16 30" fill="none" xmlns="http://www.w3.org/2000/svg">
<path d="M15.5755 29.4C15.5754 29.4689 15.5517 29.5358 15.5082 29.5893C15.4647 29.6428 15.4042 29.6797 15.3367 29.6939C14.5007 29.8959 13.6438 29.9986 12.7837 30C11.9175 29.9983 11.0546 29.8955 10.2122 29.6939C10.1448 29.6797 10.0842 29.6428 10.0408 29.5893C9.9973 29.5358 9.97354 29.4689 9.97347 29.4C9.97347 22.9531 8.44898 15.4163 7.78775 12.4653C7.12653 15.4163 5.60204 22.9531 5.60204 29.4C5.60197 29.4689 5.57821 29.5358 5.53474 29.5893C5.49127 29.6428 5.43073 29.6797 5.36327 29.6939C3.679 30.0979 1.92304 30.0979 0.238775 29.6939C0.171313 29.6797 0.110773 29.6428 0.0673018 29.5893C0.0238307 29.5358 7.01714e-05 29.4689 0 29.4C0 28.549 0.0122442 8.54082 0.838775 4.40204L1.23061 2.44898H14.3449L14.7367 4.40204C15.5633 8.54082 15.5755 28.549 15.5755 29.4ZM13.9041 0.238779C13.8887 0.170764 13.8506 0.110024 13.7961 0.0666048C13.7415 0.0231856 13.6738 -0.000310501 13.6041 3.09894e-06H1.97143C1.90171 -0.000310501 1.83397 0.0231856 1.77941 0.0666048C1.72486 0.110024 1.68677 0.170764 1.67143 0.238779C1.67143 0.238779 1.67143 0.244901 1.35306 1.83674H14.2224C13.9041 0.244901 13.9041 0.238779 13.9041 0.238779Z" fill="#704F38"/>
</svg>
