<svg width="24" height="24" viewBox="0 0 24 24" fill="none" xmlns="http://www.w3.org/2000/svg">
<path d="M7.11131 20.971C5.6535 20.9757 4.191 20.9803 2.73319 20.9757C2.33944 20.9757 2.08631 20.6288 2.15194 20.2257C2.39569 18.6741 2.62538 17.1225 2.86913 15.5757C3.08944 14.1835 3.3285 12.7913 3.54881 11.3944C3.70819 10.3866 3.84881 9.37878 4.00819 8.37097C4.24256 6.88503 4.48631 5.39909 4.72538 3.91315C4.86131 3.06003 4.98788 2.2069 5.11913 1.35378C5.2035 0.795966 5.64413 0.416279 6.216 0.416279C8.68163 0.416279 11.1519 0.397529 13.6176 0.425654C14.9629 0.439716 16.2988 0.608466 17.5223 1.2319C18.7926 1.8694 19.566 2.90534 19.8191 4.31159C19.9363 4.96784 19.8941 5.62409 19.7676 6.28034C19.2426 6.01315 18.6894 5.83972 18.1176 5.72722C17.4051 5.58659 16.6738 5.54909 15.9473 5.53972C14.1144 5.52097 12.2769 5.52565 10.4441 5.53972C10.0551 5.5444 9.70819 5.70378 9.5535 6.10222C9.48319 6.28503 9.45975 6.49128 9.43163 6.69284C9.30506 7.46159 9.18319 8.23503 9.06131 9.00846C8.96756 9.60378 8.86444 10.1991 8.77538 10.7944C8.66288 11.5491 8.56444 12.3085 8.41913 13.0585C8.37225 13.3069 8.26913 13.56 8.34413 13.8272C8.28788 13.996 8.23631 14.1647 8.20819 14.3428C8.07694 15.21 7.941 16.0772 7.80506 16.9444C7.641 17.9944 7.48631 19.0491 7.30819 20.0991C7.25194 20.3897 7.27069 20.6991 7.11131 20.971Z" fill="#002987"/>
<path d="M7.11168 20.9703C7.27105 20.7031 7.2523 20.3891 7.29918 20.0984C7.4773 19.0484 7.63199 17.9984 7.79605 16.9438C7.93199 16.0766 8.06793 15.2094 8.19918 14.3422C8.2273 14.1641 8.27887 13.9953 8.33512 13.8266C8.58824 13.4328 8.9398 13.2594 9.41793 13.2641C10.6132 13.2641 11.8086 13.325 12.9992 13.175C14.0632 13.0438 15.0804 12.7719 16.0273 12.2656C17.4851 11.4828 18.4789 10.2875 19.1023 8.77344C19.3976 8.05156 19.632 7.30625 19.7304 6.52813C19.7398 6.50938 19.7445 6.49062 19.7539 6.47656C19.7632 6.42969 19.7726 6.38281 19.782 6.33594C20.8976 6.92656 21.4929 7.87344 21.6523 9.11094C21.7836 10.1281 21.6289 11.1172 21.3757 12.1016C21.1742 12.8844 20.8648 13.6203 20.4242 14.2953C19.707 15.4016 18.7086 16.1703 17.4664 16.6109C16.8195 16.8406 16.1539 16.9719 15.4742 17.0516C14.907 17.1172 14.3398 17.1172 13.7726 17.1219C13.2007 17.1219 12.8351 17.4359 12.7554 17.9984C12.582 19.1844 12.4086 20.3703 12.2023 21.5563C12.132 21.9594 12.0757 22.3672 12.0054 22.7656C11.9164 23.2531 11.5695 23.5437 11.0773 23.5437C9.88199 23.5437 8.68668 23.5437 7.49137 23.5437C7.03668 23.5437 6.81637 23.2812 6.89137 22.8406C6.98043 22.2969 7.06949 21.7578 7.15855 21.2141C7.17262 21.125 7.19605 21.0359 7.11168 20.9703Z" fill="#0085CC"/>
<path d="M19.7859 6.32682C19.7765 6.37369 19.7671 6.42057 19.7578 6.46744C19.7484 6.48619 19.7437 6.50495 19.7343 6.51901C19.6359 7.29713 19.4015 8.04244 19.1062 8.76432C18.4828 10.2784 17.489 11.4737 16.0312 12.2565C15.0843 12.7628 14.0625 13.0346 13.0031 13.1659C11.8125 13.3112 10.6171 13.2549 9.42183 13.2549C8.9437 13.2549 8.59214 13.4237 8.33902 13.8174C8.26402 13.5549 8.36714 13.2971 8.41402 13.0487C8.55464 12.2987 8.65777 11.5393 8.77027 10.7846C8.85933 10.1893 8.96245 9.59401 9.0562 8.99869C9.17808 8.22526 9.29995 7.45651 9.42652 6.68307C9.45933 6.4862 9.47808 6.27994 9.54839 6.09244C9.70308 5.69401 10.05 5.52994 10.439 5.52994C12.2718 5.51588 14.1093 5.51119 15.9421 5.52994C16.6687 5.53932 17.3953 5.57682 18.1125 5.71744C18.6843 5.82994 19.2421 6.00338 19.7625 6.27057C19.7718 6.2987 19.7812 6.31276 19.7859 6.32682Z" fill="#00186A"/>
</svg>
