<svg width="67" height="67" viewBox="0 0 67 67" fill="none" xmlns="http://www.w3.org/2000/svg">
<path d="M33.5085 5.58521C26.1943 5.58521 20.248 11.5315 20.248 18.8456C20.248 26.0202 25.8593 31.8269 33.1735 32.0781C33.3968 32.0502 33.6201 32.0502 33.7876 32.0781C33.8435 32.0781 33.8714 32.0781 33.9272 32.0781C33.9551 32.0781 33.9551 32.0781 33.983 32.0781C41.1297 31.8269 46.741 26.0202 46.7689 18.8456C46.7689 11.5315 40.8226 5.58521 33.5085 5.58521Z" fill="#797979"/>
<path d="M47.6778 39.504C39.889 34.3115 27.1869 34.3115 19.3424 39.504C15.7969 41.8769 13.8428 45.0873 13.8428 48.5211C13.8428 51.9548 15.7969 55.1373 19.3144 57.4823C23.2228 60.1065 28.3594 61.4186 33.4961 61.4186C38.6328 61.4186 43.7694 60.1065 47.6778 57.4823C51.1953 55.1094 53.1494 51.9269 53.1494 48.4652C53.1215 45.0315 51.1953 41.849 47.6778 39.504Z" fill="#797979"/>
</svg>
