<svg width="12" height="13" viewBox="0 0 12 13" fill="none" xmlns="http://www.w3.org/2000/svg">
<path d="M5.4776 1.05143C5.69209 0.619726 6.30791 0.619727 6.52241 1.05143L7.9299 3.88425C8.01484 4.0552 8.17805 4.17378 8.36688 4.20173L11.496 4.66495C11.9729 4.73554 12.1632 5.32123 11.8189 5.65863L9.55963 7.87263C9.42329 8.00624 9.36095 8.1981 9.39272 8.38633L9.91912 11.5054C9.99934 11.9808 9.50112 12.3427 9.07385 12.1196L6.27007 10.6551C6.10087 10.5667 5.89913 10.5667 5.72993 10.6551L2.92615 12.1196C2.49888 12.3427 2.00066 11.9808 2.08088 11.5054L2.60728 8.38633C2.63905 8.1981 2.57671 8.00624 2.44037 7.87263L0.181137 5.65863C-0.163152 5.32123 0.0271502 4.73554 0.504002 4.66495L3.63312 4.20173C3.82195 4.17378 3.98516 4.0552 4.0701 3.88425L5.4776 1.05143Z" fill="#FCAF23"/>
</svg>
