<svg width="30" height="30" viewBox="0 0 30 30" fill="none" xmlns="http://www.w3.org/2000/svg">
<path d="M21.8593 3.07764L21.4841 3.45354V3.07764H19.636C18.8027 4.36528 17.0435 5.25535 15.0011 5.25535C12.9594 5.25535 11.2002 4.36528 10.3669 3.07764H8.51874V3.45354L8.14283 3.07764L1.49609 9.72811L5.13185 13.3669L8.51874 9.97847V26.9219H21.4826V9.97921L24.8703 13.3676L28.5053 9.72811L21.8593 3.07764Z" fill="#704F38"/>
<path d="M21.482 28.4166H8.51805C7.693 28.4166 7.02339 27.747 7.02339 26.9219V13.5881L6.18788 14.4236C5.90763 14.7046 5.52724 14.8615 5.13041 14.8615C4.73432 14.8615 4.35319 14.7038 4.07294 14.4236L0.437187 10.7849C-0.145729 10.2012 -0.145729 9.25583 0.437187 8.67142L7.08542 2.02094C7.40976 1.69585 7.87834 1.53817 8.32972 1.59497C8.39175 1.58749 8.45452 1.58301 8.51805 1.58301H10.3662C10.8729 1.58301 11.3459 1.84009 11.621 2.26532C12.2091 3.17407 13.5356 3.76072 15.0004 3.76072C16.4651 3.76072 17.7924 3.17407 18.3805 2.26532C18.6556 1.84009 19.1279 1.58301 19.6353 1.58301H21.4834C21.547 1.58301 21.6097 1.58674 21.6718 1.59497C21.7331 1.58749 21.7951 1.58301 21.8579 1.58301C22.2539 1.58301 22.6351 1.74069 22.9161 2.02094L29.5628 8.67067C30.1457 9.25433 30.1457 10.1997 29.5628 10.7841L25.9278 14.4236C25.6476 14.7038 25.2672 14.8615 24.8711 14.8615C24.475 14.8623 24.0939 14.7046 23.8136 14.4243L22.9774 13.5873V26.9219C22.9766 27.7477 22.3077 28.4166 21.482 28.4166ZM10.0127 25.4273H19.9873V9.97924C19.9873 9.37465 20.3512 8.82985 20.9095 8.59818C21.4685 8.36576 22.1105 8.4943 22.5387 8.92252L24.8688 11.2527L26.3919 9.72814L21.6097 4.943C21.3713 4.96467 21.1367 4.9273 20.9117 4.83463C20.7555 4.77036 20.6143 4.68068 20.4917 4.57232H20.3632C19.1294 5.93246 17.1519 6.75004 15.0004 6.75004C12.8488 6.75004 10.8721 5.93246 9.63755 4.57232H9.509C9.38719 4.68068 9.24595 4.76962 9.08975 4.83463C8.86331 4.92805 8.62267 4.96093 8.39025 4.943L3.60735 9.72889L5.13041 11.2534L7.45983 8.92252C7.8873 8.4943 8.53001 8.36651 9.08901 8.59818C9.64801 8.82985 10.012 9.37465 10.012 9.97924V25.4273H10.0127Z" fill="#704F38"/>
</svg>
