<svg width="157" height="130" viewBox="0 0 157 130" fill="none" xmlns="http://www.w3.org/2000/svg">
<g opacity="0.07">
<path fill-rule="evenodd" clip-rule="evenodd" d="M4.99495 200.879C6.69928 200.739 8.31831 200.605 9.84326 200.485C17.4737 199.882 25.4285 200.394 33.5112 200.913L34.0157 200.946C42.2944 201.477 50.7173 201.995 59.2033 201.357C76.1127 200.086 93.2897 194.225 109.733 174.552C130.49 149.718 148.099 111.311 153.801 77.3539C156.652 60.3743 156.511 44.5937 152.37 32.2097C148.243 19.8683 140.156 10.9105 127.023 7.41504C108.612 2.51492 94.6353 -0.133373 79.6015 1.49349C64.5647 3.12069 48.3856 9.03548 25.6186 21.4288C16.6897 26.2893 7.28661 28.9807 -2.37405 31.0378C-6.61569 31.9409 -10.9183 32.7239 -15.2523 33.5127C-15.8518 33.6218 -16.452 33.731 -17.0526 33.8406C-22.001 34.744 -26.9906 35.6784 -32.0122 36.8338C-52.0579 41.4462 -72.6131 49.5787 -92.4074 73.2604C-100.015 82.3617 -107.435 90.4011 -114.161 97.6869C-116.669 100.404 -119.081 103.017 -121.369 105.541C-129.819 114.86 -136.568 122.946 -140.466 130.714C-144.341 138.437 -145.371 145.791 -142.439 153.713C-139.486 161.694 -132.473 170.361 -119.989 180.571C-102.134 195.172 -77.0967 200.762 -52.7369 202.382C-30.9145 203.833 -9.76267 202.093 4.99495 200.879ZM5.0673 201.749C-26.1446 204.317 -86.2793 209.265 -120.541 181.246C-161.534 147.723 -145 129.811 -114.789 97.0808C-108.068 89.7992 -100.669 81.7842 -93.077 72.7008C-67.5329 42.14 -40.6829 37.2537 -15.4094 32.6542C-1.20384 30.069 12.5037 27.5744 25.2014 20.6623C70.8186 -4.16976 90.3856 -3.23931 127.247 6.5717C181.091 20.9026 152.122 125.199 110.403 175.111C85.3218 205.118 58.4334 203.39 33.485 201.786C25.3797 201.265 17.4792 200.757 9.91199 201.355C8.38925 201.475 6.77139 201.608 5.0673 201.749Z" fill="#704F38"/>
<path fill-rule="evenodd" clip-rule="evenodd" d="M6.94328 198.725C8.41861 198.602 9.82023 198.485 11.1405 198.38C17.7541 197.85 24.6461 198.286 31.6386 198.728L32.0792 198.756C39.2452 199.209 46.5271 199.649 53.8634 199.089C68.4731 197.975 83.3157 192.896 97.5447 175.873C115.521 154.366 130.79 121.112 135.754 91.7229C138.236 77.0271 138.126 63.3843 134.562 52.6903C131.013 42.0392 124.048 34.3242 112.729 31.3216C96.8017 27.0964 84.7242 24.8212 71.733 26.2413C58.7384 27.6618 44.7446 32.7903 25.0326 43.5398C17.2856 47.7645 9.1318 50.1066 0.763412 51.8977C-2.91115 52.6842 -6.63838 53.3666 -10.3908 54.0536C-10.9092 54.1486 -11.4282 54.2436 -11.9475 54.339C-16.2313 55.1258 -20.5486 55.939 -24.8933 56.9435C-42.2313 60.9521 -60.0051 68.0031 -77.1398 88.5029C-83.7347 96.3931 -90.1682 103.364 -95.9966 109.68C-98.1699 112.035 -100.259 114.299 -102.241 116.485C-109.564 124.563 -115.403 131.561 -118.776 138.274C-122.127 144.944 -123.017 151.279 -120.501 158.098C-117.963 164.977 -111.921 172.459 -101.131 181.283C-85.7201 193.886 -64.0848 198.7 -43.0099 200.08C-24.1324 201.316 -5.83173 199.79 6.94328 198.725ZM7.01655 199.595C-20.0011 201.848 -72.0548 206.188 -101.683 181.958C-137.133 152.968 -122.805 137.443 -96.6249 109.074C-90.8005 102.763 -84.3964 95.8913 -77.8163 88.0189C-55.6779 61.5326 -32.4266 57.2011 -10.5469 53.195C1.75105 50.9433 13.6179 48.7706 24.6148 42.7736C64.122 21.2293 81.0571 22.0169 112.953 30.4781C159.544 42.8374 134.371 133.174 98.2143 176.432C76.477 202.439 53.2056 200.967 31.6132 199.601C24.5983 199.157 17.7605 198.725 11.2102 199.25C9.89209 199.355 8.49165 199.472 7.01655 199.595Z" fill="#704F38"/>
<path fill-rule="evenodd" clip-rule="evenodd" d="M11.5175 180.048C12.7015 179.984 13.8263 179.922 14.8858 179.868C20.1872 179.596 25.7348 180.092 31.3717 180.595L31.7235 180.627C37.4971 181.142 43.3708 181.651 49.2672 181.37C61.0165 180.811 72.8679 177.12 83.9553 163.971C97.9508 147.373 109.505 121.437 112.852 98.3253C114.525 86.7687 114.138 75.9769 111.027 67.4339C107.928 58.9204 102.133 52.6475 92.9253 50.0167C80.0175 46.3286 70.2379 44.2614 59.801 45.0978C49.3619 45.9344 38.2062 49.6814 22.5829 57.7369C16.4556 60.8962 9.95833 62.5637 3.27014 63.7928C0.333602 64.3325 -2.64758 64.7888 -5.65051 65.2486C-6.06592 65.3122 -6.48174 65.3758 -6.89792 65.4398C-10.3265 65.9666 -13.7832 66.5139 -17.2581 67.2117C-31.1297 69.9973 -45.2914 75.1802 -58.6379 91.0082C-63.7672 97.0911 -68.7861 102.451 -73.3346 107.309C-75.0312 109.121 -76.6623 110.863 -78.2092 112.547C-83.9211 118.763 -88.4719 124.168 -91.0429 129.407C-93.5991 134.616 -94.1811 139.625 -91.9948 145.096C-89.7921 150.606 -84.7506 156.661 -75.8712 163.87C-63.1726 174.181 -45.6384 178.462 -28.6489 180.017C-13.4291 181.409 1.26527 180.608 11.5175 180.048ZM11.5839 180.644C-10.0993 181.828 -51.8755 184.107 -76.2434 164.322C-105.399 140.65 -94.2162 128.706 -73.7832 106.883C-69.2373 102.028 -64.2336 96.6843 -59.1144 90.6133C-41.891 70.1876 -23.2872 67.3396 -5.77565 64.6588C4.06708 63.152 13.5647 61.698 22.2783 57.2052C53.5822 41.0647 67.2221 42.0599 93.066 49.4442C130.816 60.2304 112.561 131.006 84.4318 164.366C67.5204 184.421 48.7685 182.746 31.3695 181.192C25.7169 180.687 20.2071 180.194 14.9496 180.464C13.8916 180.518 12.7677 180.58 11.5839 180.644Z" fill="#704F38"/>
<path fill-rule="evenodd" clip-rule="evenodd" d="M12.8345 178.612C13.8594 178.555 14.833 178.501 15.7503 178.453C20.3451 178.212 25.1515 178.636 30.0279 179.067L30.3351 179.094C35.3326 179.535 40.4105 179.97 45.5078 179.722C55.659 179.228 65.8995 176.028 75.4935 164.65C87.614 150.276 97.6343 127.82 100.551 107.818C102.009 97.8162 101.683 88.4866 99.0052 81.1098C96.3384 73.7624 91.3481 68.3599 83.4126 66.0993C72.2459 62.9182 63.7956 61.141 54.7769 61.8735C45.7559 62.6062 36.1072 65.8558 22.5806 72.8435C17.2645 75.5897 11.6307 77.0413 5.83733 78.1124C3.29346 78.5826 0.711028 78.9808 -1.88886 79.3817C-2.24808 79.437 -2.60762 79.4925 -2.96745 79.5482C-5.93549 80.0075 -8.92632 80.4843 -11.9327 81.0913C-23.9303 83.5138 -36.1753 88.0084 -47.7286 101.71C-52.1753 106.983 -56.5265 111.631 -60.4684 115.842C-61.9383 117.413 -63.3512 118.922 -64.691 120.38C-69.6412 125.769 -73.5783 130.446 -75.8034 134.974C-78.0138 139.473 -78.5174 143.788 -76.6405 148.496C-74.7474 153.246 -70.4034 158.472 -62.7291 164.703C-51.7684 173.602 -36.6171 177.291 -21.9191 178.621C-8.7535 179.813 3.95981 179.106 12.8345 178.612ZM12.9014 179.208C-5.8674 180.252 -42.0286 182.265 -63.1013 165.155C-88.3138 144.684 -78.6235 134.332 -60.917 115.417C-56.9778 111.208 -52.6452 106.628 -48.2085 101.366C-33.2814 83.664 -17.1729 81.1292 -2.01332 78.7918C6.50743 77.478 14.7295 76.2102 22.2757 72.312C49.386 58.3071 61.191 59.1564 83.5529 65.5267C116.217 74.8318 100.349 136.133 75.97 165.045C61.3134 182.427 45.0844 180.993 30.0262 179.663C25.1342 179.231 20.3656 178.81 15.8148 179.049C14.899 179.097 13.9262 179.151 12.9014 179.208Z" fill="#704F38"/>
</g>
</svg>
