<svg width="24" height="24" viewBox="0 0 24 24" fill="none" xmlns="http://www.w3.org/2000/svg">
<path d="M20.4703 3.4875C18.2062 1.2375 15.1922 0 11.9906 0C8.78906 0 5.77969 1.2375 3.51562 3.4875C1.24687 5.7375 0 8.72813 0 11.9109C0 15.0938 1.24687 18.0844 3.51562 20.3344C5.77969 22.5797 8.78906 23.8219 11.9906 23.8219C15.1922 23.8219 18.2016 22.5844 20.4656 20.3344C22.7344 18.0844 23.9812 15.0938 23.9812 11.9109C23.9812 8.72813 22.7344 5.7375 20.4703 3.4875ZM21.3469 8.08594H16.8984C16.8937 8.07188 16.8937 8.05781 16.8891 8.04375C16.4578 5.71406 15.825 3.75469 15.3328 2.4375C18.0562 3.38438 20.25 5.45625 21.3469 8.08594ZM10.6359 1.96875C11.0813 1.90781 11.5312 1.87969 11.9906 1.87969C12.3703 1.87969 12.7406 1.90313 13.1062 1.94063C13.5094 2.87344 14.4141 5.17031 14.9859 8.08594H9.18281C9.67031 4.84219 10.4813 2.41875 10.6359 1.96875ZM1.875 11.9109C1.875 11.2453 1.94062 10.5938 2.06719 9.96094H7.06875C6.89531 11.8406 6.88125 13.65 7.02656 15.3516H2.48906C2.09062 14.2781 1.875 13.1203 1.875 11.9109ZM3.41719 17.2266H7.26094C7.49531 18.6563 7.84688 20.0063 8.325 21.2578C6.28594 20.4703 4.56563 19.0406 3.41719 17.2266ZM7.28906 8.08594H2.63906C3.71719 5.50313 5.85 3.46406 8.49844 2.49375C8.14688 3.69375 7.63125 5.67656 7.28906 8.08594ZM13.3406 21.8531C12.9 21.9094 12.45 21.9422 11.9953 21.9422C11.5266 21.9422 11.0672 21.9094 10.6125 21.8484C9.9 20.3672 9.44063 18.7969 9.16875 17.2266H15.0797C14.7469 18.7875 14.1937 20.3578 13.3406 21.8531ZM15.3703 15.3516H8.91562C8.74219 13.4344 8.79844 11.5828 8.95312 9.96094H15.2906C15.4969 11.5875 15.5766 13.4391 15.3703 15.3516ZM15.7547 21.225C16.3078 19.9734 16.725 18.6375 16.9922 17.2266H20.5687C19.4391 19.0172 17.7516 20.4281 15.7547 21.225ZM17.2641 15.3516L17.2781 15.1828C17.4281 13.5234 17.3953 11.7703 17.1797 9.96094H21.9187C22.0453 10.5938 22.1109 11.2453 22.1109 11.9109C22.1109 13.1203 21.8953 14.2781 21.4969 15.3516H17.2641Z" fill="#704F38"/>
</svg>
